<svg height="448pt" viewBox="0 0 448.16419 448" width="448pt" xmlns="http://www.w3.org/2000/svg"><path d="m116.164062 357.683594c-3.199218.796875-5.601562 3.199218-6.398437 6.398437l-19.203125 84h125.601562v-20.800781l-74.398437-74.398438zm52 66.398437h-40v-16h40zm0 0"/><path d="m192.164062 128.082031c0 19.199219 4.800782 38.398438 12.800782 56h37.597656c23.203125-46.398437 15.203125-101.601562-19.199219-140-20 23.199219-31.199219 52.800781-31.199219 84zm0 0"/><path d="m160.164062 348.882812 56 56v-32.800781l-34.398437-27.199219zm0 0"/><path d="m152.164062 253.683594v-29.601563c0-20 15.199219-37.601562 36-39.199219-22.398437-51.199218-12-110.402343 24.800782-152-52.800782-47.199218-133.601563-42.402343-180.800782 10.398438-47.199218 52.800781-41.601562 133.601562 11.199219 180.800781 23.199219 20.800781 53.601563 32 84.800781 32 8 0 16-.800781 24-2.398437zm-117.601562-104 11.203125-11.203125 18.398437 18.402343 82.398438-82.402343 11.203125 11.203125-93.601563 93.597656zm0 0"/><path d="m256.164062 200.082031h-64c-13.601562 0-24 10.398438-24 24v21.601563c32.800782-24.800782 79.199219-24.800782 112 0v-21.601563c0-13.601562-10.398437-24-24-24zm0 0"/><path d="m320.164062.0820312c-31.199218 0-61.601562 11.1992188-84.800781 31.9999998 37.601563 41.601563 47.199219 100.800781 24.800781 152 20 2.398438 35.199219 19.199219 36 39.199219v29.601562c8 1.597657 16 2.398438 24 2.398438 70.398438 0 128-57.597656 128-128 0-70.398438-57.601562-127.1992188-128-127.1992188zm77.601563 170.3984378-11.203125 11.203125-42.398438-42.402344-42.398437 42.402344-11.203125-11.203125 42.402344-42.398438-42.402344-42.398437 11.203125-11.203125 42.398437 42.402343 42.398438-42.402343 11.203125 11.203125-42.402344 42.398437zm0 0"/><path d="m332.164062 357.683594-32-6.402344-68 76v20.800781h125.601563l-19.203125-84c-.796875-3.199219-3.199219-5.601562-6.398438-6.398437zm-12 66.398437h-40v-16h40zm0 0"/><path d="m276.164062 294.480469c2.398438-5.597657 4-12 4-17.597657v-9.601562c-29.601562-31.199219-78.398437-32-109.601562-2.398438-.796875.800782-1.597656 1.597657-2.398438 2.398438v9.601562c0 6.398438 1.601563 12 4 17.597657l18.398438 36 33.601562 27.203125 33.601563-27.203125zm0 0"/><path d="m232.164062 372.082031v31.199219l49.601563-55.199219-15.203125-3.199219zm0 0"/></svg>